<svg xmlns="http://www.w3.org/2000/svg" viewBox="0 0 240 240">
<defs>
<linearGradient id="bgG" x1="0" y1="0" x2="0" y2="1"><stop offset="0" stop-color="#100a22"/><stop offset="1" stop-color="#070512"/></linearGradient>
<radialGradient id="ctrG" cx=".5" cy=".45" r=".6"><stop offset="0" stop-color="#4a3a80" stop-opacity=".5"/><stop offset="1" stop-color="#4a3a80" stop-opacity="0"/></radialGradient>
<radialGradient id="sgG"><stop offset="0" stop-color="#fff"/><stop offset=".45" stop-color="#ffe2a6" stop-opacity=".55"/><stop offset="1" stop-color="#ffe2a6" stop-opacity="0"/></radialGradient>
<linearGradient id="galS" x1="0" y1="0" x2="1" y2="0"><stop offset="0" stop-color="#ffbe5a"/><stop offset=".5" stop-color="#e86aa0"/><stop offset="1" stop-color="#6a5ae8"/></linearGradient>
</defs>
<rect width="240" height="240" rx="54" fill="url(#bgG)"/>
<rect width="240" height="240" rx="54" fill="url(#ctrG)"/>
<circle cx="120" cy="120" r="100" fill="none" stroke="#e8c15a" stroke-width="2" opacity=".4"/>
<circle cx="120" cy="120" r="88" fill="none" stroke="#e8c15a" stroke-width="1.5" stroke-dasharray="2 10" opacity=".3"/>
<circle cx="120" cy="120" r="58" fill="none" stroke="#ffe9a8" stroke-width="2.5" opacity=".35"/>
<circle cx="120" cy="120" r="74" fill="none" stroke="#e86aa0" stroke-width="1.5" opacity=".3"/>
<g stroke-linecap="round">
<line x1="120" y1="96" x2="120" y2="62" stroke="#ffe9a8" stroke-width="4"/>
<line x1="141" y1="104" x2="166" y2="82" stroke="#ffbe5a" stroke-width="4"/>
<line x1="148" y1="124" x2="184" y2="124" stroke="#3fd0b8" stroke-width="4"/>
<line x1="141" y1="140" x2="162" y2="162" stroke="#e86aa0" stroke-width="4"/>
<line x1="120" y1="146" x2="120" y2="178" stroke="#ffe9a8" stroke-width="4"/>
<line x1="99" y1="140" x2="76" y2="160" stroke="#ffbe5a" stroke-width="4"/>
<line x1="92" y1="124" x2="56" y2="124" stroke="#fff3d0" stroke-width="4"/>
<line x1="99" y1="104" x2="78" y2="86" stroke="#3fd0b8" stroke-width="4"/>
</g>
<circle cx="120" cy="120" r="34" fill="url(#sgG)"/>
<circle cx="120" cy="120" r="10" fill="#fff"/>
<g transform="translate(186,64) scale(.5)">
<ellipse rx="26" ry="10" fill="none" stroke="url(#galS)" stroke-width="3" stroke-dasharray="8 5" transform="rotate(-20)"/>
<circle r="5" fill="#fff"/>
</g>
<path d="M0,-9 Q1.4,-1.4 9,0 Q1.4,1.4 0,9 Q-1.4,1.4 -9,0 Q-1.4,-1.4 0,-9 Z" transform="translate(54,182) scale(.8)" fill="#ffe9a8"/>
<circle cx="58" cy="56" r="2.5" fill="#e8c15a"/>
<circle cx="196" cy="176" r="2" fill="#3fd0b8"/>
</svg>