<svg xmlns="http://www.w3.org/2000/svg" width="100%" height="100%" overflow="visible">
<title>SVIP 5 Chat Bubble</title>
<defs>
<linearGradient id="s5m" x1="0" y1="0" x2="1" y2="1"><stop offset="0" stop-color="#6a4e2c"><animate attributeName="stop-color" values="#6a4e2c;#7d5c34;#6a4e2c" dur="6s" repeatCount="indefinite"/></stop><stop offset=".45" stop-color="#2b1d0d"/><stop offset=".6" stop-color="#170e04"/><stop offset="1" stop-color="#755633"/></linearGradient>
<linearGradient id="s5d" x1="0" y1="0" x2="0" y2="1"><stop offset="0" stop-color="#170f05"/><stop offset=".5" stop-color="#4a3620"/><stop offset="1" stop-color="#0e0903"/></linearGradient>
<linearGradient id="s5t" x1="0" y1="0" x2="0" y2="1"><stop offset="0" stop-color="#4a3620"/><stop offset="1" stop-color="#170f05"/></linearGradient>
<linearGradient id="s5br" x1="0" y1="0" x2="0" y2="1"><stop offset="0" stop-color="#f0d290"/><stop offset=".5" stop-color="#c99a48"/><stop offset="1" stop-color="#6b4c1a"/></linearGradient>
<linearGradient id="s5gl" x1="0" y1="0" x2="0" y2="1"><stop offset="0" stop-color="#1c1206" stop-opacity=".72"/><stop offset="1" stop-color="#0f0a04" stop-opacity=".88"/></linearGradient>
<filter id="s5b" x="-30%" y="-30%" width="160%" height="160%"><feGaussianBlur stdDeviation="4"/></filter>
<clipPath id="s5c"><rect width="100%" height="100%" rx="18"/></clipPath>
</defs>
<g clip-path="url(#s5c)"><rect width="100%" height="100%" rx="18" fill="none" stroke="#ffb347" stroke-width="16" opacity=".3" filter="url(#s5b)"><animate attributeName="opacity" values=".26;.5;.26" dur="3.2s" repeatCount="indefinite"/></rect>
<rect width="100%" height="100%" rx="18" fill="none" stroke="#fff3d0" stroke-width="16" opacity="0" filter="url(#s5b)"><animate attributeName="opacity" values="0;0;.5;.06;0" keyTimes="0;.88;.905;.95;1" dur="12s" repeatCount="indefinite"/></rect></g>
<rect width="100%" height="100%" rx="18" fill="url(#s5gl)"/>
<svg x="10" y="100%" width="1" height="1" overflow="visible"><path d="M2 -9 C1 -2 2 5 5 10 C10 6 17 1 26 -6 Z" fill="url(#s5t)" stroke="#c99a48" stroke-width="1.2" stroke-opacity=".8"/></svg>
<g clip-path="url(#s5c)">
<rect width="100%" height="100%" rx="18" fill="none" stroke="url(#s5d)" stroke-width="18"/>
<rect width="100%" height="100%" rx="18" fill="none" stroke="#120b04" stroke-width="15" opacity=".95"/>
<rect width="100%" height="100%" rx="18" fill="none" stroke="url(#s5m)" stroke-width="12"/>
<rect width="100%" height="100%" rx="18" fill="none" stroke="#ffb347" stroke-width="8" stroke-linecap="round" stroke-dasharray="6 28" opacity=".4" filter="url(#s5b)"><animate attributeName="stroke-dashoffset" from="0" to="-34" dur="1.8s" repeatCount="indefinite"/></rect>
<rect width="100%" height="100%" rx="18" fill="none" stroke="#ffe9b8" stroke-width="6" stroke-linecap="round" stroke-dasharray="6 28"><animate attributeName="stroke-dashoffset" from="0" to="-34" dur="1.8s" repeatCount="indefinite"/></rect>
<rect width="100%" height="100%" rx="18" fill="none" stroke="#ffffff" stroke-width="8" stroke-linecap="round" stroke-dasharray="14 652" filter="url(#s5b)"><animate attributeName="stroke-dashoffset" from="0" to="-666" dur="2s" repeatCount="indefinite"/></rect>
<rect width="100%" height="100%" rx="18" fill="none" stroke="#f7e9c8" stroke-width="10" stroke-linecap="round" stroke-dasharray="40 620" opacity=".4"><animate attributeName="stroke-dashoffset" from="0" to="-660" dur="4.4s" repeatCount="indefinite"/></rect>
</g>
<svg x="100%" y="0" width="1" height="1" overflow="visible"><g transform="translate(-15 15)"><g><animateTransform attributeName="transform" type="rotate" dur="5s" calcMode="discrete" repeatCount="indefinite" values="0;60;120;180;240;300"/><g fill="url(#s5br)" stroke="#3a2a16" stroke-width=".5"><rect x="-.9" y="-7.4" width="1.8" height="2.2" rx=".3"/><rect x="-.9" y="-7.4" width="1.8" height="2.2" rx=".3" transform="rotate(60)"/><rect x="-.9" y="-7.4" width="1.8" height="2.2" rx=".3" transform="rotate(120)"/><rect x="-.9" y="-7.4" width="1.8" height="2.2" rx=".3" transform="rotate(180)"/><rect x="-.9" y="-7.4" width="1.8" height="2.2" rx=".3" transform="rotate(240)"/><rect x="-.9" y="-7.4" width="1.8" height="2.2" rx=".3" transform="rotate(300)"/><circle r="5.4"/><circle r="3.4" fill="#201507" stroke="none"/></g></g><circle r="1.1" fill="#ffb347"><animate attributeName="r" values="1;1.3;1" dur="2.2s" repeatCount="indefinite"/></circle></g></svg>
<svg x="100%" y="100%" width="1" height="1" overflow="visible"><g transform="translate(-15 -15)"><animateTransform attributeName="transform" type="scale" values="1;1.12;1" dur="2.4s" begin="1.2s" additive="sum" repeatCount="indefinite"/><circle r="6.2" fill="url(#s5br)" stroke="#3a2a16" stroke-width=".8"/><circle r="4.6" fill="#f7efd9"/><g><animateTransform attributeName="transform" type="rotate" dur="4.2s" repeatCount="indefinite"/><path d="M0 0 L0 -3.4" stroke="#3a2a16" stroke-width=".9" stroke-linecap="round"/></g><circle r=".7" fill="#8a5f28"/></g></svg>
<g transform="translate(19 17)"><circle r="7.6" fill="#f7efd9" stroke="url(#s5br)" stroke-width="1.2"/><g><animateTransform attributeName="transform" type="rotate" dur="12s" calcMode="discrete" repeatCount="indefinite" values="0;30;60;90;120;150;180;210;240;270;300;330"/><path d="M0 0 L0 -5.4" stroke="#3a2a16" stroke-width="1" stroke-linecap="round"/></g><circle r="1.1" fill="#8a5f28"/></g>
</svg>