<svg xmlns="http://www.w3.org/2000/svg" viewBox="0 0 200 200" width="200" height="200">
<defs><radialGradient id="wvg" cx="38%" cy="30%" r="82%"><stop offset="0%" stop-color="#FFF5BC"/><stop offset="55%" stop-color="#FFD45E"/><stop offset="100%" stop-color="#FFA51F"/></radialGradient></defs>
<style>
.wvB{transform-box:fill-box;transform-origin:center bottom;animation:wvA 1.3s ease-in-out infinite}
@keyframes wvA{0%,100%{transform:scale(1,1)}30%{transform:scale(1.05,.95) translateY(2px)}60%{transform:scale(.98,1.03) translateY(-4px)}}
.wvA2{transform-box:fill-box;transform-origin:center bottom;animation:wvB 1.1s ease-in-out infinite}
@keyframes wvB{0%,100%{transform:rotate(0)}25%{transform:rotate(-20deg)}50%{transform:rotate(14deg)}75%{transform:rotate(-20deg)}}
.wvT{transform-box:fill-box;transform-origin:center;animation:wvC 1.1s ease-in-out infinite}
@keyframes wvC{0%,100%{transform:translateY(0)}50%{transform:translateY(-6px)}}
</style>
<g class="wvB">
<circle cx="100" cy="106" r="70" fill="url(#wvg)" stroke="#C97B2D" stroke-width="2.5" stroke-opacity=".55"/>
<ellipse cx="72" cy="54" rx="20" ry="10" fill="#fff" opacity=".6" transform="rotate(-16 72 54)"/>
<path d="M58 104 Q68 94 78 104" fill="none" stroke="#8A4B15" stroke-width="8" stroke-linecap="round"/>
<path d="M118 104 Q128 94 138 104" fill="none" stroke="#8A4B15" stroke-width="8" stroke-linecap="round"/>
<ellipse cx="52" cy="122" rx="11" ry="7" fill="#FFB3C7" opacity=".85"/>
<ellipse cx="148" cy="122" rx="11" ry="7" fill="#FFB3C7" opacity=".85"/>
<path d="M82 126 Q100 137 118 126 Q116 150 100 154 Q84 150 82 126 Z" fill="#5A1B3F"/>
<ellipse cx="100" cy="148" rx="11" ry="6" fill="#FF8FB0"/>
<path d="M64 136 Q58 150 60 162" fill="none" stroke="#FFD45E" stroke-width="12" stroke-linecap="round"/>
<circle cx="60" cy="164" r="10" fill="url(#wvg)" stroke="#C97B2D" stroke-width="2.5" stroke-opacity=".55"/>
</g>
<g class="wvA2">
<path d="M134 98 Q142 76 148 60" fill="none" stroke="#FFD45E" stroke-width="13" stroke-linecap="round"/>
<circle cx="150" cy="54" r="14" fill="url(#wvg)" stroke="#C97B2D" stroke-width="2.5" stroke-opacity=".55"/>
</g>
<g class="wvT"><text x="34" y="58" font-family="'Baloo 2','Comic Sans MS',cursive" font-size="20" font-weight="800" fill="#F26D9A">hi!</text></g>
</svg>